# xmcd
#
# Track frame offsets: 
#        150
#        16162
#        26407
#        39707
#        52595
#        70197
#        85812
#        99510
#        123900
#        137702
#        152885
#        165512
#
# Disc length: 2381 seconds
#
# Revision: 0
# Processed by: cddbd v1.5.2PL0 Copyright (c) Steve Scherf et al.
# Submitted via: ExactAudioCopyFreeDBPlugin 1.0
#
DISCID=8a094b0c
DTITLE=Leo Hull and The Texas Blues Machine - 12 Pack Of Blues
DYEAR=2003
DGENRE=Blues
TTITLE0=Murdered By Love
TTITLE1=Just Your Fool
TTITLE2=High And Lonesome
TTITLE3=Love Me Baby
TTITLE4=I'm In The Mood
TTITLE5=Razor Blade
TTITLE6=Dust My Broom
TTITLE7=Drowning On Dry Land
TTITLE8=Shame Shame Shame
TTITLE9=Nasty Ways
TTITLE10=Worrying Me
TTITLE11=Sweet Home Chicago
EXTD=
EXTT0=
EXTT1=
EXTT2=
EXTT3=
EXTT4=
EXTT5=
EXTT6=
EXTT7=
EXTT8=
EXTT9=
EXTT10=
EXTT11=
PLAYORDER=
